<?xml version="1.0" encoding="UTF-8" standalone="no"?>
<svg
   xmlns:dc="http://purl.org/dc/elements/1.1/"
   xmlns:cc="http://creativecommons.org/ns#"
   xmlns:rdf="http://www.w3.org/1999/02/22-rdf-syntax-ns#"
   xmlns:svg="http://www.w3.org/2000/svg"
   xmlns="http://www.w3.org/2000/svg"
   id="svg1859"
   version="1.1"
   viewBox="0 0 82.870598 53.414619"
   height="53.414619mm"
   width="82.870598mm">
  <defs
     id="defs1853">
    <clipPath
       id="clip_0">
      <rect
         width="268"
         height="177"
         id="rect60"
         x="0"
         y="0" />
    </clipPath>
  </defs>
  <metadata
     id="metadata1856">
    <rdf:RDF>
      <cc:Work
         rdf:about="">
        <dc:format>image/svg+xml</dc:format>
        <dc:type
           rdf:resource="http://purl.org/dc/dcmitype/StillImage" />
        <dc:title></dc:title>
      </cc:Work>
    </rdf:RDF>
  </metadata>
  <g
     transform="translate(-28.868271,-66.185548)"
     id="layer1">
    <g
       transform="matrix(0.26458333,0,0,0.26458333,46.575,70.73589)"
       id="g1336">
      <g
         id="g26"
         transform="translate(-93.153153,-11.891892)">
        <line
           x1="61.900002"
           y1="177.95999"
           x2="56.900002"
           y2="177.95999"
           style="visibility:inherit;fill:#000000;stroke:#cccccc;stroke-width:1px"
           id="line2" />
        <line
           x1="61.900002"
           y1="161.78181"
           x2="56.900002"
           y2="161.78181"
           style="visibility:inherit;fill:#000000;stroke:#cccccc;stroke-width:1px"
           id="line4" />
        <line
           x1="61.900002"
           y1="145.60364"
           x2="56.900002"
           y2="145.60364"
           style="visibility:inherit;fill:#000000;stroke:#cccccc;stroke-width:1px"
           id="line6" />
        <line
           x1="61.900002"
           y1="129.42546"
           x2="56.900002"
           y2="129.42546"
           style="visibility:inherit;fill:#000000;stroke:#cccccc;stroke-width:1px"
           id="line8" />
        <line
           x1="61.900002"
           y1="113.24727"
           x2="56.900002"
           y2="113.24727"
           style="visibility:inherit;fill:#000000;stroke:#cccccc;stroke-width:1px"
           id="line10" />
        <line
           x1="61.900002"
           y1="97.069092"
           x2="56.900002"
           y2="97.069092"
           style="visibility:inherit;fill:#000000;stroke:#cccccc;stroke-width:1px"
           id="line12" />
        <line
           x1="61.900002"
           y1="80.890907"
           x2="56.900002"
           y2="80.890907"
           style="visibility:inherit;fill:#000000;stroke:#cccccc;stroke-width:1px"
           id="line14" />
        <line
           x1="61.900002"
           y1="64.71273"
           x2="56.900002"
           y2="64.71273"
           style="visibility:inherit;fill:#000000;stroke:#cccccc;stroke-width:1px"
           id="line16" />
        <line
           x1="61.900002"
           y1="48.534546"
           x2="56.900002"
           y2="48.534546"
           style="visibility:inherit;fill:#000000;stroke:#cccccc;stroke-width:1px"
           id="line18" />
        <line
           x1="61.900002"
           y1="32.356365"
           x2="56.900002"
           y2="32.356365"
           style="visibility:inherit;fill:#000000;stroke:#cccccc;stroke-width:1px"
           id="line20" />
        <line
           x1="61.900002"
           y1="16.178183"
           x2="56.900002"
           y2="16.178183"
           style="visibility:inherit;fill:#000000;stroke:#cccccc;stroke-width:1px"
           id="line22" />
        <line
           x1="61.900002"
           y1="0"
           x2="56.900002"
           y2="0"
           style="visibility:inherit;fill:#000000;stroke:#cccccc;stroke-width:1px"
           id="line24" />
      </g>
      <text
         id="text30"
         dy="3.6000001"
         dx="0"
         y="149.88992"
         x="-41.253151"
         style="font-weight:200;font-size:12px;font-family:'Helvetica Neue', sans-serif;text-anchor:end;visibility:inherit;fill:#32313f;stroke:none;stroke-width:1px">0</text>
      <text
         id="text34"
         dy="3.6000001"
         dx="0"
         y="117.53357"
         x="-41.253151"
         style="font-weight:200;font-size:12px;font-family:'Helvetica Neue', sans-serif;text-anchor:end;visibility:inherit;fill:#32313f;stroke:none;stroke-width:1px">0.01</text>
      <text
         id="text38"
         dy="3.6000001"
         dx="0"
         y="85.1772"
         x="-41.253151"
         style="font-weight:200;font-size:12px;font-family:'Helvetica Neue', sans-serif;text-anchor:end;visibility:inherit;fill:#32313f;stroke:none;stroke-width:1px">0.02</text>
      <text
         id="text42"
         dy="3.6000001"
         dx="0"
         y="52.820839"
         x="-41.253151"
         style="font-weight:200;font-size:12px;font-family:'Helvetica Neue', sans-serif;text-anchor:end;visibility:inherit;fill:#32313f;stroke:none;stroke-width:1px">0.03</text>
      <text
         id="text46"
         dy="3.6000001"
         dx="0"
         y="20.464474"
         x="-41.253151"
         style="font-weight:200;font-size:12px;font-family:'Helvetica Neue', sans-serif;text-anchor:end;visibility:inherit;fill:#32313f;stroke:none;stroke-width:1px">0.04</text>
      <text
         id="text50"
         dy="3.6000001"
         dx="0"
         y="-11.891892"
         x="-41.253151"
         style="font-weight:200;font-size:12px;font-family:'Helvetica Neue', sans-serif;text-anchor:end;visibility:hidden;fill:#32313f;stroke:none;stroke-width:1px">0.05</text>
      <line
         x1="-31.253151"
         y1="-11.891892"
         x2="-31.253151"
         y2="166.0681"
         id="line54"
         style="fill:#000000;stroke:#cccccc;stroke-width:1px" />
      <g
         transform="translate(-32.153153,-11.891892)"
         clip-path="url(#clip_0)"
         id="g155">
        <clipPath
           id="clipPath1893">
          <rect
             width="268"
             height="177"
             id="rect1891"
             x="0"
             y="0" />
        </clipPath>
        <g
           id="g119">
          <g
             id="g117">
            <g
               id="g89">
              <line
                 x1="0"
                 y1="0"
                 x2="0"
                 y2="177.95999"
                 id="line63"
                 style="opacity:0.25;fill:#000000;stroke:#3c3c3c;stroke-width:1px" />
              <line
                 x1="22.341667"
                 y1="0"
                 x2="22.341667"
                 y2="177.95999"
                 id="line65"
                 style="opacity:0.25;fill:#000000;stroke:#3c3c3c;stroke-width:1px" />
              <line
                 x1="44.683334"
                 y1="0"
                 x2="44.683334"
                 y2="177.95999"
                 id="line67"
                 style="opacity:0.25;fill:#000000;stroke:#3c3c3c;stroke-width:1px" />
              <line
                 x1="67.025002"
                 y1="0"
                 x2="67.025002"
                 y2="177.95999"
                 id="line69"
                 style="opacity:0.25;fill:#000000;stroke:#3c3c3c;stroke-width:1px" />
              <line
                 x1="89.366669"
                 y1="0"
                 x2="89.366669"
                 y2="177.95999"
                 id="line71"
                 style="opacity:0.25;fill:#000000;stroke:#3c3c3c;stroke-width:1px" />
              <line
                 x1="111.70834"
                 y1="0"
                 x2="111.70834"
                 y2="177.95999"
                 id="line73"
                 style="opacity:0.25;fill:#000000;stroke:#3c3c3c;stroke-width:1px" />
              <line
                 x1="134.05"
                 y1="0"
                 x2="134.05"
                 y2="177.95999"
                 id="line75"
                 style="opacity:0.25;fill:#000000;stroke:#3c3c3c;stroke-width:1px" />
              <line
                 x1="156.39166"
                 y1="0"
                 x2="156.39166"
                 y2="177.95999"
                 id="line77"
                 style="opacity:0.25;fill:#000000;stroke:#3c3c3c;stroke-width:1px" />
              <line
                 x1="178.73334"
                 y1="0"
                 x2="178.73334"
                 y2="177.95999"
                 id="line79"
                 style="opacity:0.25;fill:#000000;stroke:#3c3c3c;stroke-width:1px" />
              <line
                 x1="201.075"
                 y1="0"
                 x2="201.075"
                 y2="177.95999"
                 id="line81"
                 style="opacity:0.25;fill:#000000;stroke:#3c3c3c;stroke-width:1px" />
              <line
                 x1="223.41667"
                 y1="0"
                 x2="223.41667"
                 y2="177.95999"
                 id="line83"
                 style="opacity:0.25;fill:#000000;stroke:#3c3c3c;stroke-width:1px" />
              <line
                 x1="245.75833"
                 y1="0"
                 x2="245.75833"
                 y2="177.95999"
                 id="line85"
                 style="opacity:0.25;fill:#000000;stroke:#3c3c3c;stroke-width:1px" />
              <line
                 x1="268.10001"
                 y1="0"
                 x2="268.10001"
                 y2="177.95999"
                 id="line87"
                 style="opacity:0.25;fill:#000000;stroke:#3c3c3c;stroke-width:1px" />
            </g>
            <g
               id="g115">
              <line
                 x1="0"
                 y1="177.95999"
                 x2="268.10001"
                 y2="177.95999"
                 id="line91"
                 style="opacity:0.25;fill:#000000;stroke:#3c3c3c;stroke-width:1px" />
              <line
                 x1="0"
                 y1="161.78181"
                 x2="268.10001"
                 y2="161.78181"
                 id="line93"
                 style="opacity:0.25;fill:#000000;stroke:#3c3c3c;stroke-width:1px" />
              <line
                 x1="0"
                 y1="145.60364"
                 x2="268.10001"
                 y2="145.60364"
                 id="line95"
                 style="opacity:0.25;fill:#000000;stroke:#3c3c3c;stroke-width:1px" />
              <line
                 x1="0"
                 y1="129.42546"
                 x2="268.10001"
                 y2="129.42546"
                 id="line97"
                 style="opacity:0.25;fill:#000000;stroke:#3c3c3c;stroke-width:1px" />
              <line
                 x1="0"
                 y1="113.24727"
                 x2="268.10001"
                 y2="113.24727"
                 id="line99"
                 style="opacity:0.25;fill:#000000;stroke:#3c3c3c;stroke-width:1px" />
              <line
                 x1="0"
                 y1="97.069092"
                 x2="268.10001"
                 y2="97.069092"
                 id="line101"
                 style="opacity:0.25;fill:#000000;stroke:#3c3c3c;stroke-width:1px" />
              <line
                 x1="0"
                 y1="80.890907"
                 x2="268.10001"
                 y2="80.890907"
                 id="line103"
                 style="opacity:0.25;fill:#000000;stroke:#3c3c3c;stroke-width:1px" />
              <line
                 x1="0"
                 y1="64.71273"
                 x2="268.10001"
                 y2="64.71273"
                 id="line105"
                 style="opacity:0.25;fill:#000000;stroke:#3c3c3c;stroke-width:1px" />
              <line
                 x1="0"
                 y1="48.534546"
                 x2="268.10001"
                 y2="48.534546"
                 id="line107"
                 style="opacity:0.25;fill:#000000;stroke:#3c3c3c;stroke-width:1px" />
              <line
                 x1="0"
                 y1="32.356365"
                 x2="268.10001"
                 y2="32.356365"
                 id="line109"
                 style="opacity:0.25;fill:#000000;stroke:#3c3c3c;stroke-width:1px" />
              <line
                 x1="0"
                 y1="16.178183"
                 x2="268.10001"
                 y2="16.178183"
                 id="line111"
                 style="opacity:0.25;fill:#000000;stroke:#3c3c3c;stroke-width:1px" />
              <line
                 x1="0"
                 y1="0"
                 x2="268.10001"
                 y2="0"
                 id="line113"
                 style="opacity:0.25;fill:#000000;stroke:#3c3c3c;stroke-width:1px" />
            </g>
          </g>
        </g>
        <g
           id="g125">
          <g
             id="g123">
            <line
               x1="0"
               y1="161.78181"
               x2="268.10001"
               y2="161.78181"
               id="line121"
               style="fill:#000000;stroke:#999999;stroke-width:1.5px" />
          </g>
        </g>
        <g
           id="g131">
          <g
             id="g129">
            <line
               x1="22.341667"
               y1="0"
               x2="22.341667"
               y2="177.95999"
               id="line127"
               style="fill:#000000;stroke:#999999;stroke-width:1.5px" />
          </g>
        </g>
        <g
           id="g153">
          <g
             id="g141">
            <g
               id="g139">
              <g
                 id="g137">
                <g
                   id="g135">
                  <path
                     style="fill:none;stroke:#ff7043;stroke-width:2px"
                     d="m 31.278333,-4.3949121 1.117084,15.5334861 1.117083,11.88192 1.117083,9.504656 1.117084,7.574184 1.117083,5.651901 1.117083,4.308091 1.117084,3.484555 1.117083,2.902218 1.117083,2.498586 1.117084,2.302339 1.117083,2.126186 1.117083,2.096719 1.117084,2.022599 1.117083,1.957104 1.117083,1.897462 1.117084,1.863607 1.117083,1.793445 1.117083,1.73277 1.117084,1.710331 1.117083,1.652225 1.117083,1.61136 1.117084,1.532483 1.117083,1.481777 1.117083,1.461055 1.117084,1.434455 1.117083,1.393757 1.117083,1.378227 1.117084,1.278898 1.117083,1.271094 1.117083,1.219084 1.117084,1.167678 1.117083,1.123905 1.117083,1.059912 1.117084,0.990509 1.117083,0.993908 1.117083,0.920846 1.117084,0.8792 1.117083,0.86081 1.117083,0.83802 1.117084,0.74152 1.117083,0.75861 1.117083,0.7107 1.117083,0.68538 1.117084,0.66068 1.117083,0.64788 1.117083,0.61972 1.117084,0.59501 1.117083,0.58765 1.117083,0.58976 1.117084,0.54174 1.117083,0.52635 1.117083,0.48897 1.117084,0.50035 1.117083,0.49327 1.117083,0.4418 1.117084,0.46284 1.117083,0.46515 1.117083,0.40535 1.117084,0.3778 1.117083,0.39999 1.117083,0.36409 1.117084,0.3747 1.11708,0.34903 1.11709,0.32278 1.11708,0.30734 1.11708,0.26959 1.11709,0.33158 1.11708,0.31356 1.11708,0.29455 1.11709,0.29642 1.11708,0.25901 1.11708,0.25307 1.11709,0.22563 1.11708,0.27344 1.11708,0.25053 1.11709,0.18331 1.11708,0.23405 1.11708,0.10973 1.11709,0.24394 1.11708,0.19815 1.11708,0.20666 1.11709,0.1743 1.11708,0.21242 1.11708,0.1992 1.11709,0.16556 1.11708,0.13593 1.11708,0.17085 1.11709,0.11619 1.11708,0.17206 1.11708,0.16275 1.11709,0.16012 1.11708,0.15222 1.11708,0.12448 1.11709,0.14262 1.11708,0.14089 1.11708,0.14435 1.11709,0.20077 1.11708,0.20287 1.11708,0.16587 1.11709,0.13165 1.11708,0.14626 1.11708,0.12187 1.11709,0.11664 1.11708,0.10019 1.11708,0.13074 1.11709,0.064 1.11708,0.0126 1.11708,0.15489 1.11709,0.11693 1.11708,0.10409 1.11708,0.0792 1.11709,0.0578 1.11708,0.0833 1.11708,0.0322 1.11709,0.11688 1.11708,0.10073 1.11708,0.0157 1.11709,0.0971 1.11708,0.0732 1.11708,0.0343 1.11709,0.11134 1.11708,0.11178 1.11708,0.0846 1.11709,0.0673 1.11708,0.0541 1.11708,0.0536 1.11709,0.0846 1.11708,0.0828 1.11708,0.0637 1.11709,0.0532 1.11708,0.0336 1.11708,0.0832 1.11709,0.0456 1.11708,0.0712 1.11708,0.0523 1.11709,0.0804 1.11708,0.0513 1.11708,-0.003 1.11709,0.0978 1.11708,-0.0479 1.11708,0.011 1.11709,0.063 1.11708,0.01 1.11708,0.0541 1.11709,0.0669 1.11708,0.0536 1.11708,0.0405 1.11709,0.0312 1.11708,0.0386 1.11708,0.0166 1.11709,0.01 1.11708,0.031 1.11708,0.0877 1.11709,0.0564 1.11708,0.0226 1.11708,0.0415 1.11709,0.0319 1.11708,0.027 1.11708,0.0559 1.11709,0.0558 1.11708,-0.003 1.11708,0.0415 1.11709,0.018 1.11708,0.0187 1.11708,0.0156 1.11709,0.0731 1.11708,0.0588 1.11708,0.0429 1.11709,0.0451 1.11708,0.0108 1.11708,-0.037 1.11709,0.0513 1.11708,-0.0646 1.11708,0.0632 1.11709,-0.0632 1.11708,0.068 1.11708,0.0848 1.11709,0.0523 1.11708,0.0317 1.11708,0.0503 1.11709,0.0592 1.11708,-0.0446 1.11708,0.0363 1.11709,0.0545 1.11708,0.0287 1.11708,-0.002 1.11709,0.038 1.11708,-0.0164 1.11708,0.013 1.11709,0.0821 1.11708,-0.008"
                     id="path133" />
                </g>
              </g>
            </g>
          </g>
          <g
             id="g151"
             style="opacity:0.2">
            <g
               id="g149">
              <g
                 id="g147">
                <g
                   id="g145">
                  <path
                     style="fill:none;stroke:#ff7043;stroke-width:2px"
                     d="m 27.927083,-17.097093 1.117084,22.4620531 1.117083,12.2228459 1.117083,9.130124 1.117084,7.486061 1.117083,6.531615 1.117083,5.994803 1.117084,4.70547 1.117083,2.782135 1.117083,2.298384 1.117084,2.251858 1.117083,2.029943 1.117083,1.89373 1.117084,2.008252 1.117083,1.862114 1.117083,2.052598 1.117084,1.911467 1.117083,1.858889 1.117083,1.808017 1.117084,1.812832 1.117083,1.688208 1.117083,1.641761 1.117084,1.676673 1.117083,1.565069 1.117083,1.550061 1.117084,1.414169 1.117083,1.405718 1.117083,1.429971 1.117084,1.394557 1.117083,1.33271 1.117083,1.354931 1.117084,1.129906 1.117083,1.259387 1.117083,1.141068 1.117084,1.090569 1.117083,1.058247 1.117083,0.963922 1.117084,0.886403 1.117083,0.999012 1.117083,0.81125 1.117084,0.81674 1.117083,0.83322 1.117083,0.80383 1.117084,0.59677 1.117083,0.78425 1.117083,0.63883 1.117083,0.64739 1.117084,0.62365 1.117083,0.62867 1.117083,0.57748 1.117084,0.55794 1.117083,0.57661 1.117083,0.59292 1.117084,0.46973 1.117083,0.50325 1.117083,0.4329 1.117084,0.51744 1.117083,0.48263 1.117083,0.3646 1.117084,0.4944 1.117083,0.46862 1.117083,0.31564 1.117084,0.33648 1.117083,0.43327 1.117083,0.31024 1.117084,0.39063 1.11708,0.31052 1.11709,0.2834 1.11708,0.28418 1.11708,0.21296 1.11709,0.42456 1.11708,0.28655 1.11708,0.26603 1.11709,0.29921 1.11708,0.20292 1.11708,0.24414 1.11709,0.18447 1.11708,0.34517 1.11708,0.21616 1.11709,0.0825 1.11708,0.31017 1.11708,-0.0767 1.11709,0.44524 1.11708,0.12945 1.11708,0.21945 1.11709,0.12576 1.11708,0.26958 1.11708,0.17938 1.11709,0.1151 1.11708,0.0915 1.11708,0.22322 1.11709,0.0342 1.11708,0.25587 1.11708,0.14879 1.11709,0.15618 1.11708,0.14036 1.11708,0.0829 1.11709,0.16984 1.11708,0.1383 1.11708,0.14953 1.11709,0.28541 1.11708,0.206 1.11708,0.1104 1.11709,0.0803 1.11708,0.16817 1.11708,0.0853 1.11709,0.1088 1.11708,0.0755 1.11708,0.17658 1.11709,-0.0362 1.11708,-0.0645 1.11708,0.36836 1.11709,0.06 1.11708,0.0848 1.11708,0.0418 1.11709,0.0258 1.11708,0.12163 1.11708,-0.0445 1.11709,0.24387 1.11708,0.0765 1.11708,-0.11197 1.11709,0.21917 1.11708,0.0374 1.11708,-0.024 1.11709,0.2269 1.11708,0.11243 1.11708,0.0439 1.11709,0.0412 1.11708,0.0344 1.11708,0.0528 1.11709,0.13111 1.11708,0.08 1.11708,0.0352 1.11709,0.0373 1.11708,0.004 1.11708,0.15762 1.11709,-0.0107 1.11708,0.10949 1.11708,0.0241 1.11709,0.12243 1.11708,0.008 1.11708,-0.0844 1.11709,0.24898 1.11708,-0.26639 1.11708,0.0994 1.11709,0.14086 1.11708,-0.07 1.11708,0.12068 1.11709,0.086 1.11708,0.0336 1.11708,0.0209 1.11709,0.0172 1.11708,0.0497 1.11708,-0.0164 1.11709,-3.7e-4 1.11708,0.0626 1.11708,0.17285 1.11709,0.01 1.11708,-0.0281 1.11708,0.0698 1.11709,0.0174 1.11708,0.0197 1.11708,0.0994 1.11709,0.0555 1.11708,-0.0921 1.11708,0.10874 1.11709,-0.0171 1.11708,0.0198 1.11708,0.0109 1.11709,0.1592 1.11708,0.0375 1.11708,0.0189 1.11709,0.0484 1.11708,-0.0407 1.11708,-0.10856 1.11709,0.18381 1.11708,-0.23843 1.11708,0.2548 1.11709,-0.25274 1.11708,0.26476 1.11708,0.10992 1.11709,0.004 1.11708,8.1e-4 1.11708,0.0783 1.11709,0.0726 1.11708,-0.2002 1.11708,0.15768 1.11709,0.0817 1.11708,-0.01 1.11708,-0.0475 1.11709,0.0978 1.11708,-0.098 1.11708,0.0571 1.11709,0.18566 1.11708,-0.14311"
                     id="path143" />
                </g>
              </g>
            </g>
          </g>
        </g>
      </g>
      <g
         id="g186"
         transform="translate(-32.153153,165.10811)">
        <line
           x1="0"
           y1="0"
           x2="0"
           y2="5"
           style="visibility:inherit;fill:#000000;stroke:#cccccc;stroke-width:1px"
           id="line160" />
        <line
           x1="22.341667"
           y1="0"
           x2="22.341667"
           y2="5"
           style="visibility:inherit;fill:#000000;stroke:#cccccc;stroke-width:1px"
           id="line162" />
        <line
           x1="44.683334"
           y1="0"
           x2="44.683334"
           y2="5"
           style="visibility:inherit;fill:#000000;stroke:#cccccc;stroke-width:1px"
           id="line164" />
        <line
           x1="67.025002"
           y1="0"
           x2="67.025002"
           y2="5"
           style="visibility:inherit;fill:#000000;stroke:#cccccc;stroke-width:1px"
           id="line166" />
        <line
           x1="89.366669"
           y1="0"
           x2="89.366669"
           y2="5"
           style="visibility:inherit;fill:#000000;stroke:#cccccc;stroke-width:1px"
           id="line168" />
        <line
           x1="111.70834"
           y1="0"
           x2="111.70834"
           y2="5"
           style="visibility:inherit;fill:#000000;stroke:#cccccc;stroke-width:1px"
           id="line170" />
        <line
           x1="134.05"
           y1="0"
           x2="134.05"
           y2="5"
           style="visibility:inherit;fill:#000000;stroke:#cccccc;stroke-width:1px"
           id="line172" />
        <line
           x1="156.39166"
           y1="0"
           x2="156.39166"
           y2="5"
           style="visibility:inherit;fill:#000000;stroke:#cccccc;stroke-width:1px"
           id="line174" />
        <line
           x1="178.73334"
           y1="0"
           x2="178.73334"
           y2="5"
           style="visibility:inherit;fill:#000000;stroke:#cccccc;stroke-width:1px"
           id="line176" />
        <line
           x1="201.075"
           y1="0"
           x2="201.075"
           y2="5"
           style="visibility:inherit;fill:#000000;stroke:#cccccc;stroke-width:1px"
           id="line178" />
        <line
           x1="223.41667"
           y1="0"
           x2="223.41667"
           y2="5"
           style="visibility:inherit;fill:#000000;stroke:#cccccc;stroke-width:1px"
           id="line180" />
        <line
           x1="245.75833"
           y1="0"
           x2="245.75833"
           y2="5"
           style="visibility:inherit;fill:#000000;stroke:#cccccc;stroke-width:1px"
           id="line182" />
        <line
           x1="268.10001"
           y1="0"
           x2="268.10001"
           y2="5"
           style="visibility:inherit;fill:#000000;stroke:#cccccc;stroke-width:1px"
           id="line184" />
      </g>
      <text
         id="text188"
         dy="11.4"
         dx="0"
         y="173.10811"
         x="-32.153152"
         style="font-weight:200;font-size:12px;font-family:'Helvetica Neue', sans-serif;text-anchor:middle;visibility:hidden;fill:#32313f;stroke:none;stroke-width:1px">-20</text>
      <text
         id="text190"
         dy="11.4"
         dx="0"
         y="173.10811"
         x="-9.8114862"
         style="font-weight:200;font-size:12px;font-family:'Helvetica Neue', sans-serif;text-anchor:middle;visibility:inherit;fill:#32313f;stroke:none;stroke-width:1px">0</text>
      <text
         id="text192"
         dy="11.4"
         dx="0"
         y="173.10811"
         x="12.530181"
         style="font-weight:200;font-size:12px;font-family:'Helvetica Neue', sans-serif;text-anchor:middle;visibility:hidden;fill:#32313f;stroke:none;stroke-width:1px">20</text>
      <text
         id="text194"
         dy="11.4"
         dx="0"
         y="173.10811"
         x="34.871849"
         style="font-weight:200;font-size:12px;font-family:'Helvetica Neue', sans-serif;text-anchor:middle;visibility:inherit;fill:#32313f;stroke:none;stroke-width:1px">40</text>
      <text
         id="text196"
         dy="11.4"
         dx="0"
         y="173.10811"
         x="57.213516"
         style="font-weight:200;font-size:12px;font-family:'Helvetica Neue', sans-serif;text-anchor:middle;visibility:hidden;fill:#32313f;stroke:none;stroke-width:1px">60</text>
      <text
         id="text198"
         dy="11.4"
         dx="0"
         y="173.10811"
         x="79.555191"
         style="font-weight:200;font-size:12px;font-family:'Helvetica Neue', sans-serif;text-anchor:middle;visibility:inherit;fill:#32313f;stroke:none;stroke-width:1px">80</text>
      <text
         id="text200"
         dy="11.4"
         dx="0"
         y="173.10811"
         x="101.89685"
         style="font-weight:200;font-size:12px;font-family:'Helvetica Neue', sans-serif;text-anchor:middle;visibility:hidden;fill:#32313f;stroke:none;stroke-width:1px">100</text>
      <text
         id="text204"
         dy="11.4"
         dx="0"
         y="173.10811"
         x="146.58018"
         style="font-weight:200;font-size:12px;font-family:'Helvetica Neue', sans-serif;text-anchor:middle;visibility:hidden;fill:#32313f;stroke:none;stroke-width:1px">140</text>
      <text
         id="text208"
         dy="11.4"
         dx="0"
         y="173.10811"
         x="191.26352"
         style="font-weight:200;font-size:12px;font-family:'Helvetica Neue', sans-serif;text-anchor:middle;visibility:hidden;fill:#32313f;stroke:none;stroke-width:1px">180</text>
      <text
         id="text212"
         dy="11.4"
         dx="0"
         y="173.10811"
         x="235.94685"
         style="font-weight:200;font-size:12px;font-family:'Helvetica Neue', sans-serif;text-anchor:middle;visibility:hidden;fill:#32313f;stroke:none;stroke-width:1px">220</text>
      <line
         x1="-32.153152"
         y1="165.10811"
         x2="235.94685"
         y2="165.10811"
         id="line216"
         style="fill:#000000;stroke:#cccccc;stroke-width:1px" />
    </g>
  </g>
</svg>
